HIERARCHY
ROOT Hips
{
	OFFSET 0.000000 0.000000 0.000000
	CHANNELS 6 Xposition Yposition Zposition Zrotation Xrotation Yrotation
	JOINT RightUpLeg
	{
		OFFSET -10.795800 0.000000 0.000000
		CHANNELS 3 Zrotation Xrotation Yrotation
		JOINT RightLeg
		{
			OFFSET 0.000000 -39.557900 0.000000
			CHANNELS 3 Zrotation Xrotation Yrotation
			JOINT RightFoot
			{
				OFFSET 0.000000 -40.613400 0.000000
				CHANNELS 3 Zrotation Xrotation Yrotation
				JOINT RightToe
				{
					OFFSET 0.000000 -1.003500 12.392200
					CHANNELS 3 Zrotation Xrotation Yrotation
					JOINT RightToeEnd
					{
						OFFSET 0.000000 1.088300 5.767000
						CHANNELS 3 Zrotation Xrotation Yrotation
						End Site
						{
						    OFFSET 0.000000 0.927200 4.913300
						}
					}
				}
			}
		}
	}
	JOINT LeftUpLeg
	{
		OFFSET 10.795800 0.000000 0.000000
		CHANNELS 3 Zrotation Xrotation Yrotation
		JOINT LeftLeg
		{
			OFFSET 0.000000 -39.557900 0.000000
			CHANNELS 3 Zrotation Xrotation Yrotation
			JOINT LeftFoot
			{
				OFFSET 0.000000 -40.613400 0.000000
				CHANNELS 3 Zrotation Xrotation Yrotation
				JOINT LeftToe
				{
					OFFSET 0.000000 -1.003500 12.392200
					CHANNELS 3 Zrotation Xrotation Yrotation
					JOINT LeftToeEnd
					{
						OFFSET 0.000000 1.088300 5.767000
						CHANNELS 3 Zrotation Xrotation Yrotation
						End Site
						{
						    OFFSET 0.000000 0.927200 4.913300
						}
					}
				}
			}
		}
	}
	JOINT Spine
	{
		OFFSET 0.000000 15.108100 0.000000
		CHANNELS 3 Zrotation Xrotation Yrotation
		JOINT Spine1
		{
			OFFSET 0.000000 12.828000 0.000000
			CHANNELS 3 Zrotation Xrotation Yrotation
			JOINT Spine2
			{
				OFFSET 0.000000 11.155500 0.000000
				CHANNELS 3 Zrotation Xrotation Yrotation
				JOINT LeftShoulder
				{
					OFFSET 2.000000 11.155500 0.000000
					CHANNELS 3 Zrotation Xrotation Yrotation
					JOINT LeftArm
					{
						OFFSET 15.139800 0.000000 0.000000
						CHANNELS 3 Zrotation Xrotation Yrotation
						JOINT LeftForeArm
						{
							OFFSET 0.000000 -26.627300 0.000000
							CHANNELS 3 Zrotation Xrotation Yrotation
							JOINT LeftHand
							{
								OFFSET 0.000000 -24.932400 0.000000
								CHANNELS 3 Zrotation Xrotation Yrotation
								JOINT LeftFinger0
								{
									OFFSET 0.000000 -8.640100 0.000000
									CHANNELS 3 Zrotation Xrotation Yrotation
									End Site
									{
									    OFFSET 0.000000 -5.000000 0.000000
									}
								}
							}
						}
					}
				}
				JOINT RightShoulder
				{
					OFFSET -2.000000 11.155500 0.000000
					CHANNELS 3 Zrotation Xrotation Yrotation
					JOINT RightArm
					{
						OFFSET -15.139800 0.000000 0.000000
						CHANNELS 3 Zrotation Xrotation Yrotation
						JOINT RightForeArm
						{
							OFFSET 0.000000 -26.627300 0.000000
							CHANNELS 3 Zrotation Xrotation Yrotation
							JOINT RightHand
							{
								OFFSET 0.000000 -24.932400 0.000000
								CHANNELS 3 Zrotation Xrotation Yrotation
								JOINT RightFinger0
								{
									OFFSET 0.000000 -8.640100 0.000000
									CHANNELS 3 Zrotation Xrotation Yrotation
									End Site
									{
									    OFFSET 0.000000 -5.000000 0.000000
									}
								}
							}
						}
					}
				}
				JOINT Neck
				{
					OFFSET 0.000000 11.155500 0.000000
					CHANNELS 3 Zrotation Xrotation Yrotation
					JOINT Head
					{
						OFFSET 0.000000 10.940000 0.000000
						CHANNELS 3 Zrotation Xrotation Yrotation
						JOINT HeadTip
						{
							OFFSET 0.000000 10.000000 0.000000
							CHANNELS 3 Zrotation Xrotation Yrotation
							End Site
							{
							    OFFSET 0.000000 5.000000 0.000000
							}
						}
					}
				}
			}
		}
	}
}
MOTION
Frames:	9
Frame Time:	0.033332
-108.652300 80.755500 3.696600 7.929784 -7.190025 32.554137 -13.507515 -3.467683 -1.991849 0.000000 42.187765 -0.000000 18.519236 -13.254978 -14.900158 0.000000 0.163156 -0.000000 0.000000 0.000000 0.000000 20.242923 -14.741743 19.580353 0.000000 27.696983 0.000000 -25.884945 22.559868 23.119636 -0.000000 -6.096874 -0.000000 0.000000 -0.000000 -0.000000 2.168981 14.599462 3.635984 0.000000 9.100862 -0.000000 0.000000 0.000000 -0.000000 -3.003301 0.000000 6.589849 22.671949 1.872701 -14.647299 180.000037 -63.359520 -180.000037 -0.351271 1.120769 -25.429819 -0.000000 0.000000 0.000000 -5.092124 -0.000000 -3.591969 -19.543294 -8.636933 21.798802 -179.999471 -74.978795 -179.999299 11.324989 -9.701442 6.263459 0.000000 -0.000000 0.000000 0.000000 0.000000 -0.000000 -6.711154 -4.243840 43.309911 -0.000000 0.000000 -0.000000 
-108.560400 80.743900 3.057900 8.302229 -7.124933 32.021205 -14.768111 -3.926662 -2.899698 -0.000000 42.335021 -0.000000 18.629977 -12.693763 -13.137969 -0.000000 0.316789 -0.000000 -0.000000 0.000000 -0.000000 20.411503 -15.307989 17.907568 -0.000000 30.178695 -0.000000 -25.045221 22.644584 16.315629 -0.000000 -7.010009 -0.000000 -0.000000 -0.000000 0.000000 1.697058 15.106099 3.871995 -0.000000 9.501540 0.000000 -0.000000 0.000000 -0.000000 -2.798570 -0.000000 5.959538 21.717120 -0.346483 -12.920135 -180.000037 -59.491279 -180.000037 -0.013799 0.096610 -28.022071 0.000000 -0.000000 -0.000000 -4.681279 -0.000000 -3.379100 -20.721648 -9.418556 20.617954 -179.999528 -73.369411 -179.999354 10.695470 -10.085318 6.122758 -0.000000 0.000000 -0.000000 -0.000000 0.000000 -0.000000 -6.081914 -5.382512 43.353503 0.000000 0.000000 -0.000000 
-108.415700 80.407300 2.633400 8.258757 -7.637997 32.239022 -15.201782 -3.965403 -3.984936 -0.000000 43.074867 -0.000000 18.801773 -12.830015 -11.776658 0.000000 0.402939 -0.000000 -0.000000 0.000000 -0.000000 20.845122 -15.762423 15.920228 0.000000 33.900978 0.000000 -22.090034 18.623974 12.309057 -0.000000 -8.238125 0.000000 0.000000 -0.000000 0.000000 1.738037 15.722687 3.828805 -0.000000 9.526005 0.000000 -0.000000 -0.000000 -0.000000 -3.145499 0.000000 4.565093 21.579689 -2.575336 -11.658653 -180.000037 -57.897932 -180.000037 0.058612 -0.734892 -28.766076 0.000000 -0.000000 -0.000000 -4.308154 0.000000 -3.236938 -21.701233 -9.619922 19.418795 -179.999467 -75.084410 -179.999295 9.544286 -10.694561 4.644935 -0.000000 0.000000 -0.000000 -0.000000 -0.000000 -0.000000 -4.851586 -5.668976 42.906846 -0.000000 0.000000 -0.000000 
-108.163500 79.774000 2.441400 7.532689 -8.284825 32.777204 -14.897566 -4.063985 -5.262194 -0.000000 44.195479 -0.000000 18.312753 -13.564858 -11.061956 0.000000 -0.067672 0.000000 0.000000 0.000000 -0.000000 21.396899 -14.978800 15.659000 0.000000 34.581733 -0.000000 -19.725389 14.672975 17.894347 -0.000000 -8.742892 -0.000000 0.000000 -0.000000 -0.000000 2.178663 15.728589 3.176169 -0.000000 9.168890 -0.000000 -0.000000 0.000000 -0.000000 -3.321953 0.000000 3.886115 21.206637 -4.241579 -11.513958 -180.000037 -59.333201 -180.000037 0.599611 -1.818127 -28.755667 0.000000 -0.000000 0.000000 -4.072718 -0.000000 -3.089452 -22.145227 -9.698158 18.940172 -179.999184 -79.899366 -179.999018 9.240318 -10.435302 5.026073 -0.000000 -0.000000 0.000000 -0.000000 0.000000 -0.000000 -3.087861 -5.110160 42.969830 0.000000 -0.000000 0.000000 
-107.762900 79.130800 2.384600 6.478041 -8.305508 34.026009 -14.797264 -4.205864 -7.286336 0.000000 44.969046 0.000000 18.042369 -14.547042 -11.321209 -0.000000 0.111966 -0.000000 0.000000 0.000000 -0.000000 21.684407 -14.304410 15.180280 -0.000000 31.987108 -0.000000 -20.325022 12.127881 18.599563 0.000000 -6.448274 0.000000 -0.000000 -0.000000 -0.000000 2.395470 14.619838 1.564195 0.000000 8.522222 0.000000 -0.000000 0.000000 -0.000000 -2.828055 0.000000 3.845368 19.998110 -4.152689 -11.847062 -180.000037 -63.093334 180.000037 1.814673 -2.074837 -31.038090 0.000000 -0.000000 -0.000000 -2.720801 0.000000 -3.135043 -23.372227 -9.557712 19.403519 -179.998332 -84.905336 -179.998173 8.952216 -9.531287 8.725276 -0.000000 0.000000 -0.000000 -0.000000 0.000000 -0.000000 -1.173332 -3.722550 43.208128 -0.000000 -0.000000 -0.000000 
-107.638100 79.047000 2.618100 6.145916 -8.717669 36.528332 -13.730582 -2.621953 -8.212978 -0.000000 44.231297 -0.000000 17.742638 -15.060592 -12.795115 -0.000000 0.163391 -0.000000 -0.000000 0.000000 -0.000000 23.045968 -16.893295 15.952314 0.000000 35.065399 -0.000000 -20.011032 13.732613 16.283390 -0.000000 -5.975896 -0.000000 -0.000000 0.000000 -0.000000 1.974761 14.792068 -0.100725 0.000000 8.118429 -0.000000 -0.000000 0.000000 0.000000 -2.180284 0.000000 3.990800 19.332140 -3.313295 -11.684627 -180.000037 -67.279114 -180.000037 1.858918 -0.608530 -33.942007 0.000000 0.000000 0.000000 0.285090 -0.000000 -3.799155 -25.487943 -7.830090 19.172980 -179.998366 -84.803505 -179.998207 8.814441 -9.666595 11.671514 -0.000000 0.000000 -0.000000 -0.000000 0.000000 0.000000 0.963252 -4.310605 43.166731 -0.000000 0.000000 0.000000 
-107.145000 79.211500 3.052100 7.166733 -9.118216 39.258995 -13.852659 0.297360 -9.193438 -0.000000 42.886268 -0.000000 18.284950 -15.380831 -13.913773 -0.000000 0.697644 -0.000000 -0.000000 -0.000000 -0.000000 23.185076 -16.794269 17.056522 -0.000000 35.382044 0.000000 -21.394286 15.711563 13.089796 -0.000000 -6.080225 -0.000000 -0.000000 -0.000000 -0.000000 0.886106 15.223496 -0.010503 0.000000 8.734813 -0.000000 -0.000000 -0.000000 -0.000000 -1.643313 0.000000 3.309225 19.671976 -0.734514 -11.066985 -180.000037 -67.958076 -180.000037 0.928909 0.677839 -37.011327 -0.000000 0.000000 0.000000 0.328506 -0.000000 -5.605854 -23.859850 -3.814542 18.630267 -179.998937 -82.131855 -179.998775 7.958923 -10.729813 6.149258 -0.000000 0.000000 -0.000000 -0.000000 -0.000000 -0.000000 1.643179 -5.620008 41.867530 -0.000000 0.000000 -0.000000 
-106.695400 79.267600 3.167100 6.686784 -8.428107 40.349344 -13.625067 0.351348 -9.349469 -0.000000 42.325486 -0.000000 18.525012 -15.469837 -15.026061 -0.000000 0.746116 0.000000 -0.000000 0.000000 -0.000000 23.944370 -18.626361 18.573749 0.000000 37.091511 -0.000000 -22.181404 17.096465 10.946046 0.000000 -7.021996 -0.000000 0.000000 -0.000000 -0.000000 0.321821 14.568866 1.072690 0.000000 8.426525 -0.000000 -0.000000 0.000000 -0.000000 -2.673141 -0.000000 3.844483 22.322053 2.891487 -11.105778 180.000037 -65.146940 180.000037 1.437833 -0.581569 -33.671048 -0.000000 0.000000 -0.000000 -1.421297 -0.000000 -7.255468 -21.022607 0.541626 19.310172 -179.999243 -79.162833 -179.999077 6.174301 -11.257502 2.672117 -0.000000 0.000000 -0.000000 -0.000000 0.000000 -0.000000 1.017611 -6.524388 40.700115 -0.000000 0.000000 -0.000000 
-106.380000 79.174900 3.090800 6.554966 -7.731647 40.428828 -13.842060 -0.793962 -8.699487 -0.000000 43.441665 0.000000 17.799712 -15.479665 -16.127316 -0.000000 -0.170085 -0.000000 0.000000 -0.000000 0.000000 23.950350 -19.754496 18.587711 0.000000 37.857663 0.000000 -22.330256 18.018242 10.518424 -0.000000 -6.879387 -0.000000 -0.000000 0.000000 -0.000000 -1.266284 14.788120 2.846640 0.000000 7.847713 -0.000000 -0.000000 0.000000 -0.000000 -2.426311 -0.000000 5.291406 23.996331 4.756473 -11.562711 -180.000037 -62.369443 -180.000037 2.370062 -1.485871 -30.170988 0.000000 0.000000 -0.000000 -2.957980 0.000000 -7.203350 -18.887184 4.400498 19.265129 -179.999398 -76.617624 -179.999229 6.443737 -11.023821 4.176764 -0.000000 -0.000000 -0.000000 -0.000000 0.000000 -0.000000 1.026856 -7.755540 39.578002 -0.000000 0.000000 -0.000000 
